<svg width="538" height="311" viewBox="0 0 538 311" fill="none" xmlns="http://www.w3.org/2000/svg">
<path fill-rule="evenodd" clip-rule="evenodd" d="M241.5 0.92247C238.75 1.35047 234.363 1.74047 231.75 1.78847C229.137 1.83747 227 2.32647 227 2.87647C227 3.42647 225.194 3.87647 222.986 3.87647C220.779 3.87647 218.191 4.27747 217.236 4.76747C216.281 5.25847 212.8 6.40747 209.5 7.32147C206.2 8.23647 202.6 9.36447 201.5 9.82847C200.4 10.2925 197.7 11.4225 195.5 12.3405C186.363 16.1485 174.634 22.4215 171.591 25.1265C170.509 26.0895 169.29 26.8765 168.883 26.8765C168.476 26.8765 167.548 27.4395 166.821 28.1265C166.095 28.8145 163.7 30.7185 161.5 32.3595C155.082 37.1455 154.11 38.0045 146.62 45.5085C139.069 53.0725 138.181 54.0785 133.483 60.3755C131.842 62.5755 129.718 65.2425 128.761 66.3015C127.805 67.3615 126.798 68.9385 126.523 69.8055C126.247 70.6725 125.23 71.8705 124.261 72.4685C118.218 76.2005 112.659 78.8765 110.951 78.8765C109.863 78.8765 108.191 79.2755 107.236 79.7645C106.281 80.2525 101.9 81.4195 97.5 82.3575C93.1 83.2965 88.719 84.4715 87.764 84.9705C86.809 85.4685 85.115 85.8765 84 85.8765C82.885 85.8765 81.191 86.2815 80.236 86.7755C79.281 87.2705 75.688 88.5085 72.25 89.5255C68.812 90.5435 66 91.7135 66 92.1265C66 92.5385 65.136 92.8765 64.081 92.8765C63.026 92.8765 60.888 93.5155 59.331 94.2975C57.774 95.0785 52 97.8565 46.5 100.47C36.532 105.208 28.799 109.702 28.167 111.126C27.983 111.538 27.424 111.876 26.924 111.876C26.094 111.876 22.681 114.497 19.438 117.626C18.726 118.314 17.832 118.876 17.453 118.876C15.075 118.876 2 137.427 2 140.801C2 141.942 1.55 142.876 1 142.876C0.4 142.876 0 146.876 0 152.876C0 158.876 0.4 162.876 1 162.876C1.55 162.876 2 163.964 2 165.293C2 166.622 2.338 167.859 2.75 168.043C3.163 168.226 4.3 169.956 5.278 171.886C7.385 176.045 15.871 185.201 21.5 189.389C23.7 191.025 25.725 192.614 26 192.918C26.275 193.223 28.75 194.761 31.5 196.337C34.25 197.913 36.725 199.493 37 199.847C37.65 200.683 57.452 210.238 62 211.91C63.925 212.618 65.928 213.574 66.45 214.036C66.972 214.498 68.216 214.876 69.214 214.876C70.211 214.876 71.809 215.3 72.764 215.817C73.719 216.335 77.2 217.485 80.5 218.372C83.8 219.26 87.882 220.411 89.571 220.931C91.26 221.451 93.601 221.876 94.774 221.876C95.947 221.876 97.94 222.278 99.203 222.769C100.466 223.26 104.313 224.498 107.75 225.519C111.188 226.54 114 227.713 114 228.126C114 228.538 114.675 228.876 115.5 228.876C116.325 228.876 117.003 229.213 117.006 229.626C117.01 230.039 118.368 231.147 120.024 232.089C121.68 233.032 123.332 234.607 123.694 235.589C124.057 236.572 124.615 237.601 124.933 237.876C126.149 238.927 131 245.776 131 246.442C131 246.827 131.789 247.869 132.754 248.759C133.719 249.648 136.199 252.484 138.267 255.06C143.106 261.091 149.628 267.6 154.583 271.343C156.737 272.971 158.988 274.77 159.585 275.34C160.182 275.91 161.919 277.276 163.446 278.376C164.972 279.476 166.815 280.939 167.539 281.626C168.264 282.314 169.302 282.876 169.845 282.876C170.389 282.876 170.983 283.257 171.167 283.723C172.275 286.539 204.343 301.876 209.122 301.876C210.155 301.876 211 302.267 211 302.744C211 303.222 212.688 303.892 214.75 304.234C216.813 304.576 221.65 305.562 225.5 306.426C231.423 307.756 252.105 310.12 257 310.027C262.975 309.913 280.817 307.769 287 306.422C291.125 305.524 295.967 304.534 297.759 304.222C299.552 303.91 301.266 303.255 301.568 302.766C301.871 302.276 303.19 301.876 304.5 301.876C305.81 301.876 307.129 301.476 307.432 300.987C307.734 300.498 309.147 299.805 310.572 299.447C311.996 299.09 316.534 297.24 320.654 295.337C324.775 293.433 328.563 291.876 329.073 291.876C329.583 291.876 330 291.536 330 291.12C330 290.704 331.462 289.72 333.25 288.932C335.038 288.144 337.095 286.909 337.821 286.187C338.548 285.466 339.786 284.876 340.571 284.876C341.357 284.876 342.01 284.539 342.022 284.126C342.034 283.713 344.058 282.026 346.52 280.376C348.982 278.726 350.997 277.039 350.998 276.626C350.999 276.213 351.462 275.876 352.027 275.876C353.929 275.876 369.925 260.611 375.5 253.474C377.15 251.362 379.73 248.226 381.234 246.505C382.738 244.784 383.975 242.814 383.984 242.126C383.993 241.439 384.42 240.876 384.933 240.876C385.446 240.876 386.149 239.983 386.495 238.892C387.299 236.358 394.892 228.876 396.659 228.876C397.397 228.876 398 228.488 398 228.013C398 227.538 400.587 226.398 403.75 225.48C406.913 224.562 410.882 223.375 412.571 222.843C414.26 222.311 417.073 221.876 418.821 221.876C420.569 221.876 422 221.426 422 220.876C422 220.326 423.153 219.876 424.562 219.876C427.271 219.876 436.309 217.368 439.236 215.804C440.191 215.294 441.66 214.876 442.5 214.876C443.34 214.876 444.809 214.462 445.764 213.956C446.719 213.449 450.65 211.771 454.5 210.226C458.35 208.682 461.65 207.071 461.833 206.647C462.017 206.223 462.813 205.876 463.603 205.876C464.393 205.876 466.822 204.751 469 203.376C471.178 202.001 473.607 200.876 474.397 200.876C475.187 200.876 475.983 200.538 476.167 200.126C476.646 199.047 484.765 193.876 485.979 193.876C486.54 193.876 487 193.497 487 193.033C487 192.57 488.575 191.343 490.5 190.306C492.425 189.269 494 188.074 494 187.649C494 187.224 494.508 186.876 495.129 186.876C497.263 186.876 509.75 172.724 512.621 167.052C515.13 162.095 515.494 160.274 515.494 152.673C515.494 147.055 515.052 143.528 514.247 142.723C513.561 142.037 513 140.666 513 139.676C513 138.686 512.55 137.876 512 137.876C511.45 137.876 511 137.396 511 136.809C511 135.362 506.314 129.209 501.791 124.718C497.515 120.473 485.744 111.876 484.206 111.876C483.635 111.876 483.017 111.538 482.833 111.126C482.34 110.017 462.18 99.8765 460.467 99.8765C459.66 99.8765 459 99.4265 459 98.8765C459 98.3265 458.19 97.8765 457.2 97.8765C456.21 97.8765 454.972 97.4895 454.45 97.0165C453.927 96.5435 451.025 95.3275 448 94.3145C444.975 93.3015 442.073 92.1135 441.55 91.6745C441.028 91.2355 439.655 90.8765 438.5 90.8765C437.345 90.8765 435.972 90.4735 435.45 89.9815C434.496 89.0835 427.328 87.1675 421.241 86.1825C419.448 85.8925 417.734 85.2555 417.432 84.7665C417.129 84.2765 415.366 83.8765 413.512 83.8765C409.569 83.8765 407 81.7025 407 78.3645C407 77.0605 406.523 75.6995 405.94 75.3395C404.313 74.3335 399.141 76.8565 398.466 78.9845C398.136 80.0245 397.286 80.8765 396.578 80.8765C394.552 80.8765 382 68.0265 382 65.9525C382 65.4525 381.654 64.8935 381.231 64.7095C380.808 64.5265 378.445 61.9075 375.981 58.8905C370.087 51.6745 356.538 38.0915 351.501 34.3485C349.301 32.7135 346.634 30.5945 345.575 29.6375C344.515 28.6815 342.827 27.6385 341.824 27.3205C340.821 27.0025 340 26.3225 340 25.8095C340 25.2965 339.325 24.8765 338.5 24.8765C337.675 24.8765 337 24.5235 337 24.0925C337 23.6605 334.307 21.9735 331.016 20.3425C327.726 18.7115 325.026 17.0395 325.016 16.6265C325.007 16.2135 324.127 15.8765 323.059 15.8765C321.991 15.8765 320.861 15.4615 320.548 14.9535C320.234 14.4455 318.632 13.7345 316.989 13.3735C315.345 13.0125 314 12.3035 314 11.7975C314 11.2905 312.875 10.8765 311.5 10.8765C310.125 10.8765 309 10.4775 309 9.98947C309 9.50247 307.762 8.85647 306.25 8.55347C300.21 7.34547 293.124 5.33447 292.416 4.62547C292.004 4.21347 290.161 3.87647 288.32 3.87647C286.479 3.87647 284.191 3.46947 283.236 2.97347C280.944 1.78047 261.125 -0.159533 252.954 0.0104674C249.404 0.0834674 244.25 0.49447 241.5 0.92247ZM279 10.7245C282.575 11.2605 288.65 12.4365 292.5 13.3385C296.35 14.2405 300.738 15.2315 302.25 15.5415C303.762 15.8505 305 16.5025 305 16.9895C305 17.4775 305.906 17.8765 307.014 17.8765C308.121 17.8765 309.809 18.2915 310.764 18.7985C311.719 19.3065 317.45 22.1135 323.5 25.0385C329.55 27.9635 335.367 31.1425 336.426 32.1045C337.486 33.0665 339.173 34.1145 340.176 34.4325C341.179 34.7505 342 35.4305 342 35.9435C342 36.4565 342.447 36.8765 342.992 36.8765C343.894 36.8765 347.224 39.4055 350.562 42.6265C351.274 43.3145 352.134 43.8765 352.471 43.8765C353.538 43.8765 370 60.7415 370 61.8335C370 62.4075 370.337 62.8795 370.75 62.8835C371.163 62.8875 372.625 64.5425 374 66.5615C375.375 68.5805 376.951 70.7145 377.502 71.3045C379.051 72.9625 383.334 79.9405 385.525 84.3765C386.611 86.5765 387.837 88.5265 388.25 88.7095C388.663 88.8935 389 89.9055 389 90.9595C389 92.0135 389.45 92.8765 390 92.8765C390.55 92.8765 391 93.5005 391 94.2625C391 95.0245 391.672 96.9365 392.494 98.5125C393.315 100.087 393.99 102.163 393.994 103.126C393.997 104.089 394.399 104.876 394.887 104.876C395.374 104.876 396.012 106.114 396.304 107.626C396.596 109.138 397.364 112.176 398.01 114.376C401.607 126.625 402.36 133.021 402.713 154.288C402.95 168.579 402.715 176.561 402.038 177.238C401.467 177.809 401 179.8 401 181.662C401 185.6 397.854 198.219 396.751 198.709C396.338 198.893 396 200.104 396 201.4C396 202.697 395.608 204 395.129 204.296C394.65 204.592 393.965 206.303 393.606 208.098C392.779 212.231 390.742 216.876 389.756 216.876C389.34 216.876 389 217.358 389 217.947C389 219.205 387.288 220.884 384.243 222.615C377.99 226.168 361.118 228.237 300.5 232.885C283.752 234.169 246.168 234.165 229.5 232.878C222.35 232.325 209.975 231.375 202 230.767C181.707 229.218 165.9 227.368 148 224.447C127.694 221.132 128.436 221.707 120.415 203.092C119.637 201.286 119 198.725 119 197.401C119 196.077 118.55 194.716 118 194.376C117.45 194.036 117 192.428 117 190.803C117 189.178 116.564 187.067 116.032 186.112C114.902 184.085 112 161.43 112 154.635C112 148.631 114.653 127.558 116.062 122.376C117.819 115.912 122.327 101.503 123.102 99.8765C123.495 99.0515 125.095 95.6765 126.658 92.3765C128.221 89.0765 129.838 86.2265 130.25 86.0435C130.662 85.8595 131 84.8475 131 83.7935C131 82.7385 131.398 81.8765 131.883 81.8765C132.369 81.8765 133.031 81.0885 133.354 80.1265C134.027 78.1235 135.925 75.0875 137.75 73.0975C138.438 72.3475 139 71.3825 139 70.9535C139 70.5245 140.35 68.7605 142 67.0335C143.65 65.3075 145 63.6465 145 63.3435C145 61.9105 155.901 50.7475 164.009 43.8765C167.579 40.8515 170.725 38.1125 171 37.7905C172.019 36.5965 183.074 29.8765 184.019 29.8765C184.559 29.8765 185 29.4945 185 29.0275C185 28.5605 187.025 27.3425 189.5 26.3225C191.975 25.3015 194 24.1085 194 23.6715C194 23.2345 194.681 22.8765 195.514 22.8765C196.346 22.8765 197.809 22.4555 198.764 21.9405C203.221 19.5385 207.471 17.8765 209.154 17.8765C210.169 17.8765 211 17.4265 211 16.8765C211 16.3265 212.26 15.8765 213.8 15.8765C215.34 15.8765 217.027 15.4765 217.55 14.9875C218.746 13.8685 228.285 11.9715 237.754 10.9695C241.743 10.5475 245.339 9.87147 245.743 9.46647C246.675 8.53447 270.374 9.43147 279 10.7245ZM96 60.3765C96 62.3765 96.5 62.8765 98.5 62.8765C100.5 62.8765 101 62.3765 101 60.3765C101 58.3765 100.5 57.8765 98.5 57.8765C96.5 57.8765 96 58.3765 96 60.3765ZM431 75.3765C431 76.2015 431.45 76.8765 432 76.8765C432.55 76.8765 433 76.2015 433 75.3765C433 74.5515 432.55 73.8765 432 73.8765C431.45 73.8765 431 74.5515 431 75.3765ZM31.224 78.0525C30.395 78.8815 30.358 79.6025 31.097 80.4935C32.517 82.2045 35 81.1085 35 78.7695C35 76.6455 33.009 76.2675 31.224 78.0525ZM459 82.8175C459 85.5175 460.717 86.3015 462.571 84.4475C464.425 82.5935 463.641 80.8765 460.941 80.8765C459.686 80.8765 459 81.5625 459 82.8175ZM400.217 85.8765C402.445 85.8765 405.895 86.2965 407.884 86.8095C409.873 87.3215 414.65 88.4835 418.5 89.3905C422.35 90.2975 426.4 91.4005 427.5 91.8415C428.6 92.2835 432.2 93.4635 435.5 94.4655C438.8 95.4675 441.927 96.6445 442.45 97.0815C442.972 97.5185 444.435 97.8765 445.7 97.8765C446.965 97.8765 448 98.3265 448 98.8765C448 99.4265 448.677 99.8765 449.505 99.8765C450.333 99.8765 453.342 101.001 456.192 102.376C459.042 103.751 461.928 104.876 462.604 104.876C463.28 104.876 463.983 105.214 464.167 105.626C464.35 106.038 467.2 107.706 470.5 109.331C475.991 112.036 483.781 116.623 485 117.868C485.275 118.149 486.812 119.053 488.416 119.878C492.172 121.808 505.216 134.62 506.74 137.876C512.462 150.1 512.455 156 506.705 167.862C504.554 172.299 497.741 179.609 491 184.714C489.075 186.172 487.275 187.596 487 187.88C486.725 188.163 484.7 189.291 482.5 190.386C480.3 191.48 478.275 192.643 478 192.968C477.171 193.95 452.319 205.876 451.102 205.876C450.481 205.876 449.191 206.273 448.236 206.759C445.193 208.307 441.65 209.659 436 211.428C432.975 212.375 429.6 213.504 428.5 213.937C427.4 214.371 425.375 214.949 424 215.223C422.625 215.497 417.269 216.656 412.098 217.798C401.763 220.082 398 220.379 398 218.91C398 217.979 400.309 212.226 402.122 208.64C402.605 207.685 403 206.216 403 205.376C403 204.536 403.408 203.067 403.906 202.112C406.537 197.074 408.803 184.596 410.035 168.376C411.538 148.578 408.431 119.308 403.906 110.64C403.408 109.685 403 108.024 403 106.949C403 105.874 402.55 104.716 402 104.376C401.45 104.036 401 103.065 401 102.218C401 100.67 399.295 96.3875 396.08 89.8565C395.126 87.9205 394.569 85.6705 394.84 84.8565C395.194 83.7955 395.451 83.7305 395.75 84.6265C395.992 85.3525 397.866 85.8765 400.217 85.8765ZM490 89.3765C490 90.2015 490.627 90.8765 491.393 90.8765C492.159 90.8765 493.045 90.2015 493.362 89.3765C493.753 88.3565 493.308 87.8765 491.969 87.8765C490.885 87.8765 490 88.5515 490 89.3765ZM112.663 94.1265C112.023 95.9135 111.23 97.6015 110.899 97.8765C110.568 98.1515 110.05 99.5015 109.747 100.876C109.444 102.251 108.251 106.633 107.098 110.613C105.944 114.594 105 118.955 105 120.304C105 121.654 104.618 122.994 104.151 123.283C101.685 124.807 100.677 162.269 102.723 176.376C104.598 189.305 107.795 203.004 109.285 204.494C109.678 204.888 110 206.169 110 207.343C110 208.516 110.392 209.903 110.871 210.426C111.35 210.948 112.048 212.67 112.422 214.252C113.07 216.997 112.974 217.097 110.301 216.449C108.76 216.075 105.7 215.39 103.5 214.927C101.3 214.464 97.025 213.357 94 212.468C90.975 211.578 87.037 210.572 85.25 210.232C83.463 209.892 82 209.223 82 208.745C82 208.267 81.094 207.876 79.986 207.876C78.879 207.876 77.191 207.472 76.236 206.979C75.281 206.485 72.475 205.296 70 204.336C67.525 203.376 62.243 201.08 58.262 199.233C54.281 197.387 50.569 195.876 50.012 195.876C49.455 195.876 49 195.536 49 195.12C49 194.704 47.537 193.72 45.75 192.932C43.963 192.144 41.905 190.909 41.179 190.187C40.452 189.466 39.214 188.876 38.429 188.876C37.643 188.876 37 188.426 37 187.876C37 187.326 36.551 186.876 36.002 186.876C34.237 186.876 24.65 179.65 19.5 174.437C13.546 168.41 12.251 166.263 10.492 159.499C8.958 153.6 10.078 147.558 14.085 140.119C16.617 135.419 26.673 125.297 31.75 122.339C33.537 121.297 35 120.092 35 119.66C35 119.229 35.862 118.876 36.917 118.876C37.971 118.876 38.983 118.538 39.167 118.126C39.35 117.714 41.525 116.363 44 115.125C46.475 113.886 49.625 112.228 51 111.44C55.198 109.033 60.234 106.876 61.654 106.876C62.394 106.876 63 106.426 63 105.876C63 105.326 63.81 104.876 64.8 104.876C65.79 104.876 67.027 104.489 67.55 104.016C68.072 103.543 70.975 102.327 74 101.314C77.025 100.301 79.928 99.1135 80.45 98.6745C80.973 98.2355 82.345 97.8765 83.5 97.8765C84.655 97.8765 86.028 97.4735 86.55 96.9815C87.504 96.0835 94.672 94.1675 100.759 93.1825C102.552 92.8925 104.266 92.2555 104.568 91.7665C104.871 91.2765 107.077 90.8765 109.472 90.8765H113.826L112.663 94.1265ZM404.264 96.0125C403.417 96.8595 403.509 97.5285 404.629 98.6475C406.433 100.452 408.599 98.8805 407.664 96.4435C406.953 94.5905 405.829 94.4475 404.264 96.0125ZM423.598 101.612C422.281 102.928 423.117 104.876 425 104.876C426.1 104.876 427 104.249 427 103.483C427 101.975 424.571 100.638 423.598 101.612ZM103 104.376C103 106.058 103.184 106.126 105.412 105.271C107.243 104.569 106.557 102.876 104.441 102.876C103.648 102.876 103 103.551 103 104.376ZM448 113.876C448 115.209 448.667 115.876 450 115.876C451.333 115.876 452 115.209 452 113.876C452 112.543 451.333 111.876 450 111.876C448.667 111.876 448 112.543 448 113.876ZM530.035 117.81C528.696 120.312 528.712 120.445 530.571 122.305C534.127 125.86 539.348 122.264 537 117.876C535.62 115.297 531.402 115.257 530.035 117.81ZM79.446 119.963C78.475 121.534 80.375 123.053 82.358 122.292C83.673 121.787 83.795 121.334 82.903 120.259C81.522 118.595 80.353 118.495 79.446 119.963ZM471.667 131.543C471.3 131.909 471 133.484 471 135.043C471 137.614 471.324 137.876 474.5 137.876C477.833 137.876 478 137.709 478 134.376C478 131.2 477.738 130.876 475.167 130.876C473.608 130.876 472.033 131.176 471.667 131.543ZM37 149.935C37 150.517 37.45 150.716 38 150.376C38.55 150.036 39 149.56 39 149.317C39 149.074 38.55 148.876 38 148.876C37.45 148.876 37 149.353 37 149.935ZM524.093 158.264C523.172 159.373 523.14 160.269 523.966 161.812C525.878 165.384 530.409 163.803 529.837 159.763C529.439 156.942 525.947 156.03 524.093 158.264ZM487 160.876C487 161.987 487.667 162.876 488.5 162.876C489.333 162.876 490 161.987 490 160.876C490 159.765 489.333 158.876 488.5 158.876C487.667 158.876 487 159.765 487 160.876ZM56.667 170.543C55.331 171.879 56.047 174.756 57.859 175.331C60.743 176.247 63 174.902 63 172.269C63 170.308 62.488 169.876 60.167 169.876C58.608 169.876 57.033 170.176 56.667 170.543ZM455.617 174.432C454.592 177.102 454.903 177.876 457 177.876C459.3 177.876 459.65 175.661 457.617 173.973C456.546 173.084 456.094 173.188 455.617 174.432ZM314 197.876C314 200.078 314.124 200.149 316.418 199.269C318.684 198.399 318.373 195.876 316 195.876C314.667 195.876 314 196.543 314 197.876ZM422 197.376C422 198.201 422.45 198.876 423 198.876C423.55 198.876 424 198.201 424 197.376C424 196.551 423.55 195.876 423 195.876C422.45 195.876 422 196.551 422 197.376ZM433.667 196.543C432.553 197.657 432.921 202.396 434.25 204.045C437.605 208.209 442.812 206.247 441.567 201.287C441.167 199.692 440.37 197.822 439.797 197.132C438.692 195.799 434.785 195.424 433.667 196.543ZM184.182 204.444C181.63 207.335 184.778 211.943 188.364 210.567C190.517 209.741 190.558 204.304 188.418 203.483C186.199 202.632 185.679 202.75 184.182 204.444ZM155.736 204.474C155.407 204.803 155.372 205.682 155.659 206.429C156.067 207.493 156.462 207.526 157.485 206.581C158.203 205.918 158.586 205.038 158.336 204.626C157.79 203.724 156.557 203.652 155.736 204.474ZM511 207.817C511 208.885 511.399 210.005 511.887 210.306C513.105 211.059 515.325 208.211 514.527 206.92C513.432 205.149 511 205.767 511 207.817ZM14.682 211.528C13.451 212.758 13.969 214.876 15.5 214.876C17.166 214.876 17.374 214.014 16.166 212.111C15.725 211.415 15.057 211.153 14.682 211.528ZM251 216.376C251 217.209 251.889 217.876 253 217.876C254.111 217.876 255 217.209 255 216.376C255 215.543 254.111 214.876 253 214.876C251.889 214.876 251 215.543 251 216.376ZM348.773 219.281C348.109 222.757 349.684 224.876 352.933 224.876C354.996 224.876 355.92 224.288 356.332 222.714C357.193 219.42 355.341 216.876 352.081 216.876C349.867 216.876 349.131 217.412 348.773 219.281ZM486.638 218.376C486.249 219.391 486.689 219.876 488 219.876C489.311 219.876 489.751 219.391 489.362 218.376C489.045 217.551 488.432 216.876 488 216.876C487.568 216.876 486.955 217.551 486.638 218.376ZM279 221.376C279 223.059 279.183 223.127 281.418 222.269C283.653 221.412 283.384 219.876 281 219.876C279.889 219.876 279 220.543 279 221.376ZM81.362 232.376C80.569 234.44 81.644 236.876 83.346 236.876C84.121 236.876 85.315 236.201 86 235.376C86.993 234.179 86.993 233.573 86 232.376C85.315 231.551 84.121 230.876 83.346 230.876C82.571 230.876 81.678 231.551 81.362 232.376ZM377.329 236.596C375.779 238.675 374.284 240.601 374.006 240.876C373.728 241.151 371.71 243.602 369.521 246.323C364.84 252.144 355.514 261.537 351.597 264.376C348.914 266.321 347.311 267.589 343.163 271.048C342.061 271.968 340.258 273.203 339.157 273.792C338.056 274.381 336.558 275.432 335.828 276.127C335.098 276.822 332.593 278.287 330.261 279.383C327.93 280.479 326.018 281.713 326.011 282.126C326.005 282.539 325.536 282.876 324.968 282.876C324.401 282.876 320.69 284.451 316.722 286.376C312.754 288.301 308.937 289.876 308.24 289.876C307.543 289.876 306.191 290.294 305.236 290.804C302.309 292.368 293.271 294.876 290.562 294.876C289.153 294.876 288 295.264 288 295.739C288 297.196 275.34 298.23 257.5 298.23C239.66 298.23 227 297.196 227 295.739C227 295.264 225.762 294.878 224.25 294.88C220.949 294.886 204.64 289.866 204.167 288.698C203.983 288.246 202.746 287.876 201.417 287.876C200.087 287.876 199 287.426 199 286.876C199 286.326 198.553 285.876 198.007 285.876C196.299 285.876 189 282.443 189 281.64C189 281.22 188.1 280.876 187 280.876C185.9 280.876 185 280.435 185 279.895C185 279.356 183.875 278.632 182.5 278.287C181.125 277.942 180 277.355 180 276.983C180 276.611 178.537 275.457 176.75 274.417C174.962 273.377 173.275 272.265 173 271.946C172.725 271.626 170.7 270.025 168.5 268.387C162.117 263.636 161.085 262.733 154.22 255.893C150.641 252.328 145.868 246.928 143.612 243.893C141.357 240.859 139.239 238.151 138.905 237.876C138.572 237.601 137.764 236.359 137.109 235.115L135.918 232.854L143.209 233.449C147.219 233.776 151.175 234.311 152 234.637C153.477 235.222 156.141 235.508 181 237.75C187.875 238.37 198.225 239.328 204 239.878C209.775 240.429 232.275 240.879 254 240.879C275.725 240.879 298.225 240.429 304 239.878C309.775 239.328 320.125 238.37 327 237.75C343.235 236.286 352.858 235.214 361.5 233.906C375.541 231.782 379.506 231.39 379.823 232.096C380.001 232.493 378.879 234.518 377.329 236.596ZM428.5 238.876C427.498 240.498 428.743 244.563 430.443 245.216C431.245 245.524 432.937 244.926 434.201 243.889C436.064 242.359 436.291 241.658 435.399 240.189C434.132 238.102 429.521 237.225 428.5 238.876ZM178 254.876C178 257.23 178.634 257.385 180.524 255.495C182.007 254.012 181.49 252.876 179.333 252.876C178.6 252.876 178 253.776 178 254.876ZM237.667 254.543C236.399 255.81 237.008 256.876 239 256.876C240.111 256.876 241 256.209 241 255.376C241 253.854 238.885 253.325 237.667 254.543ZM220 255.876C220 256.426 220.423 256.876 220.941 256.876C221.459 256.876 222.16 256.426 222.5 255.876C222.84 255.326 222.416 254.876 221.559 254.876C220.702 254.876 220 255.326 220 255.876ZM291.652 259.888C289.636 263.301 290.114 265.973 293.267 268.91C295.81 271.279 298.265 271.403 301.44 269.323C304.721 267.174 305.455 263.455 303.315 259.831C301.836 257.328 300.947 256.876 297.5 256.876C294.036 256.876 293.167 257.324 291.652 259.888Z" fill="white"/>
</svg>
