<svg width="778" height="124" viewBox="0 0 778 124" fill="none" xmlns="http://www.w3.org/2000/svg">
<path fill-rule="evenodd" clip-rule="evenodd" d="M21.205 1.967C9.99 5.841 3.928 13.951 3.756 25.311C3.568 37.709 8.299 42.558 26.5 48.626C39.592 52.991 42.59 54.439 44.006 57.083C45.268 59.441 43.975 62.481 41.043 64.05C36.042 66.726 22.825 64.318 13.262 58.989L8.024 56.069L4.042 63.99L0.059 71.91L3.621 74.012C12.433 79.211 28.54 82.701 38.878 81.65C55.1 80.002 63.929 71.434 63.978 57.291C64.027 43.301 58.981 38.985 33.107 30.887C27.84 29.238 25.125 27.782 23.662 25.823L21.609 23.073L23.646 20.345C24.766 18.845 27.075 17.333 28.778 16.985C33.48 16.023 41.836 17.703 48.308 20.911L54.117 23.79L57.8 16.682C59.826 12.772 61.615 9.304 61.775 8.974C62.188 8.124 50.588 3.049 44.564 1.445C37.51 -0.433 27.508 -0.210001 21.205 1.967ZM75.75 0.645C75.338 1.064 75 19.331 75 41.24V81.073H84.5H94V68.073V55.073H104.821C114.644 55.073 116.141 54.819 121.064 52.323C133.869 45.829 139.506 28.825 133.049 16.169C129.967 10.128 125.47 5.483 120.206 2.901C115.877 0.778999 113.938 0.565 96 0.239C85.275 0.0440003 76.162 0.227 75.75 0.645ZM160.619 0.879999C159.876 2.083 133 79.387 133 80.323C133 80.735 137.238 81.073 142.417 81.073H151.833L154.748 72.323L157.664 63.573L170.185 63.294L182.706 63.015L185.935 72.044L189.165 81.073H198.541H207.917L195.535 44.823C188.726 24.885 182.513 6.773 181.729 4.573L180.303 0.573L170.732 0.288C165.468 0.131 160.918 0.396999 160.619 0.879999ZM237 1.61C217.852 6.95 204.727 28.586 208.882 47.96C214.734 75.245 242.02 88.989 266.623 77.045C272.646 74.121 281 66.414 281 63.781C281 63.045 279.538 61.705 277.75 60.803C275.962 59.901 272.834 58.166 270.797 56.948L267.095 54.734L263.111 58.839C255.203 66.988 242.377 67.275 234.649 59.476C222.99 47.709 225.884 24.198 239.702 18.424C247.592 15.127 259.327 17.843 264.222 24.097L266.784 27.372L273.068 22.972C276.523 20.553 279.529 18.026 279.747 17.357C280.503 15.039 271.188 6.431 264.843 3.583C257.145 0.128 245.317 -0.709999 237 1.61ZM291 40.573V81.073H319H347V73.095V65.117L328.25 64.845L309.5 64.573L309.21 56.349L308.92 48.124L324.71 47.849L340.5 47.573V40.073V32.573L324.75 32.298L309 32.022V24.548V17.073H327.5H346V8.573V0.073H318.5H291V40.573ZM373.641 0.844999C373.195 1.567 379.991 19.683 396.798 62.573L403.851 80.573H412.077H420.303L425.639 67.573C428.574 60.423 431.467 53.459 432.069 52.097C433.072 49.827 433.711 50.933 439.752 65.385L446.341 81.148L454.383 80.861L462.425 80.573L465.75 72.073C482.74 28.635 493 1.885 493 1.029C493 0.374999 489.452 0.105001 483.255 0.287001L473.51 0.573L469.796 11.073C467.754 16.848 463.29 29.785 459.876 39.823C456.463 49.86 453.407 58.069 453.085 58.065C452.763 58.061 450.826 53.575 448.78 48.098L445.06 38.139L451.53 20.216C455.088 10.359 458 2.019 458 1.683C458 1.348 454.267 1.073 449.703 1.073H441.407L437.501 13.07C435.353 19.669 433.292 24.732 432.922 24.32C432.552 23.909 430.581 18.511 428.542 12.323L424.835 1.073H416.417C411.788 1.073 408 1.217 408 1.393C408 1.57 410.911 9.867 414.468 19.832L420.937 37.95L417.312 48.056C415.319 53.613 413.333 57.804 412.9 57.367C412.261 56.724 393 1.6 393 0.417C393 -0.306 374.094 0.111999 373.641 0.844999ZM513.577 3.286C511.304 8.815 487 79.056 487 80.097C487 80.661 490.908 81.073 496.261 81.073H505.523L508.511 72.323L511.5 63.573L524.157 63.294L536.814 63.015L539.738 71.794L542.662 80.573L552.313 80.859L561.965 81.145L551.885 51.859C546.341 35.752 540.122 17.623 538.066 11.573L534.327 0.573L524.628 0.285999L514.929 0L513.577 3.286ZM556.68 0.726C556.306 1.1 556 4.931 556 9.24V17.073H568.5H581V49.073V81.073H590H599V49.073V17.073H611.54H624.081L623.79 8.823L623.5 0.573L590.43 0.309999C572.241 0.164999 557.054 0.352 556.68 0.726ZM656.746 1.159C646.043 3.681 636.165 11.931 630.797 22.831C627.7 29.119 627.5 30.165 627.501 40.049C627.502 48.632 627.914 51.587 629.737 56.073C633.856 66.212 643.156 75.404 653.197 79.262C667.565 84.784 688.828 79.196 697.146 67.713C700.079 63.664 700.082 63.644 698.041 62.111C696.914 61.265 693.501 59.229 690.457 57.587L684.921 54.6L682.29 57.962C677.037 64.674 665.821 67.063 658.086 63.117C650.253 59.121 645.88 51.269 645.785 41.029C645.722 34.255 648.194 26.727 651.788 22.753C654.923 19.286 660.653 17.073 666.492 17.073C673.576 17.073 677.678 18.803 681.843 23.547L685.156 27.32L692.073 22.593L698.991 17.866L697.246 14.856C695.421 11.709 689.248 6.247 685.046 4.061C678.115 0.456001 665.304 -0.858 656.746 1.159ZM709.703 0.704C709.316 1.09 709 19.331 709 41.24V81.073H718.5H728V64.573V48.073H744H760V64.573V81.073H769H778V40.573V0.073H769.025H760.051L759.775 15.823L759.5 31.573L743.776 31.848L728.051 32.124L727.776 16.348L727.5 0.573L718.953 0.287001C714.252 0.130001 710.089 0.317 709.703 0.704ZM114.077 19.996C116.551 22.471 117 23.71 117 28.073C117 32.436 116.551 33.675 114.077 36.15C111.301 38.926 110.723 39.073 102.577 39.073H94V28.073V17.073H102.577C110.723 17.073 111.301 17.22 114.077 19.996ZM174.977 34.755C177.19 41.939 179 48.325 179 48.945C179 49.699 176.014 50.073 170 50.073C165.05 50.073 161 49.786 161 49.436C161 48.537 169.115 22.747 169.71 21.756C170.503 20.435 170.764 21.079 174.977 34.755ZM528.843 34.823C531.14 42.386 533.015 48.911 533.01 49.323C533.004 49.735 528.917 50.073 523.927 50.073C516.851 50.073 514.925 49.778 515.177 48.734C516.557 43.014 523.621 21.083 524.083 21.079C524.404 21.076 526.546 27.261 528.843 34.823ZM0 113.038V123.073H10.5C22.415 123.073 24.994 121.322 13.75 120.867C6.703 120.581 6.491 120.497 6.189 117.875C5.886 115.25 6.034 115.168 11.61 114.875C19.8 114.444 20.201 112.073 12.083 112.073C6.011 112.073 6 112.068 6 109.117V106.161L13.25 105.867C24.203 105.423 22.103 103.618 10.25 103.288L0 103.003V113.038ZM24 105.399C24 106.678 25.125 108.781 26.5 110.073C27.875 111.365 29 112.854 29 113.383C29 113.911 27.875 115.386 26.5 116.661C25.125 117.935 24 119.899 24 121.025C24 122.543 24.647 123.073 26.5 123.073C28.254 123.073 29 122.528 29 121.247C29 120.243 30.079 118.408 31.397 117.169C33.72 114.988 33.861 114.974 35.897 116.717C37.054 117.707 38 119.542 38 120.795C38 122.659 38.545 123.073 41 123.073C45.047 123.073 45.038 119.908 40.981 116.203L37.961 113.445L40.953 110.509C42.598 108.894 43.957 106.531 43.972 105.257C43.996 103.314 43.556 102.991 41.25 103.257C39.249 103.487 38.41 104.208 38.17 105.903C37.988 107.185 36.952 109.121 35.866 110.207C33.902 112.171 33.882 112.17 31.464 109.876C30.128 108.61 29.027 106.56 29.017 105.323C29.004 103.594 28.421 103.073 26.5 103.073C24.55 103.073 24 103.585 24 105.399ZM47 113.073V123.073H49.934C52.39 123.073 52.919 122.626 53.184 120.323C53.483 117.72 53.807 117.557 59.25 117.273C62.412 117.108 65 116.546 65 116.023C65 115.501 65.675 115.073 66.5 115.073C67.611 115.073 68 113.906 68 110.573C68 107.24 67.611 106.073 66.5 106.073C65.675 106.073 65 105.398 65 104.573C65 103.351 63.333 103.073 56 103.073H47V113.073ZM74 113.073V123.073H83C92.914 123.073 95.455 121.353 86.25 120.873L80.5 120.573L80.211 111.823L79.922 103.073H76.961H74V113.073ZM96.75 105.156C95.473 106.555 95 108.769 95 113.351C95 121.508 96.61 123.073 105 123.073C113.39 123.073 115 121.508 115 113.351C115 104.76 113.273 103.043 104.75 103.156C99.938 103.22 98.097 103.681 96.75 105.156ZM118 113.073V123.073H121C123.514 123.073 124 122.678 124 120.632C124 117.001 125.327 116.837 128.049 120.132C130.043 122.546 131.241 123.073 134.739 123.073C137.083 123.073 138.981 122.735 138.958 122.323C138.934 121.911 137.584 120.469 135.958 119.12C132.218 116.018 132.228 115.073 136 115.073C138.889 115.073 139 114.906 139 110.573C139 107.24 138.611 106.073 137.5 106.073C136.675 106.073 136 105.398 136 104.573C136 103.351 134.333 103.073 127 103.073H118V113.073ZM145 104.573C145 105.578 146.005 106.073 148.044 106.073H151.088L150.794 113.323C150.507 120.405 150.436 120.58 147.75 120.889C146.238 121.063 145 121.626 145 122.139C145 122.653 149.05 123.073 154 123.073C158.95 123.073 163 122.653 163 122.139C163 121.626 161.762 121.063 160.25 120.889C157.566 120.581 157.493 120.399 157.208 113.394C156.917 106.246 156.927 106.213 159.63 105.894C161.124 105.717 162.53 105.011 162.756 104.323C163.064 103.385 160.902 103.073 154.083 103.073C146.676 103.073 145 103.35 145 104.573ZM166 113.073V123.073H169C171.97 123.073 172 123.017 172 117.573C172 112.341 173.369 110.265 174.638 113.573C174.955 114.398 175.656 115.073 176.197 115.073C177.678 115.073 180.929 119.332 180.967 121.323C180.989 122.514 181.798 123.073 183.5 123.073H186V113.073V103.073H183.5C181.256 103.073 181 103.477 181 107.014C181 109.182 180.561 111.226 180.025 111.558C179.489 111.889 177.091 110.116 174.696 107.617C172.148 104.957 169.443 103.073 168.171 103.073C166.088 103.073 166 103.477 166 113.073ZM195 104.138C195 104.723 193.65 106.338 192 107.726C187.854 111.215 187.987 114.993 192.417 119.555C195.691 122.926 196.128 123.073 202.917 123.073H210V117.573V112.073H205.5C200.931 112.073 199.705 113.249 202.59 114.864C204.686 116.036 204.051 120.448 201.723 120.891C198.904 121.429 195.037 117.064 195.017 113.323C194.991 108.295 197.896 106.073 204.5 106.073C208.722 106.073 210 105.725 210 104.573C210 103.373 208.5 103.073 202.5 103.073C197.863 103.073 195 103.479 195 104.138ZM240 104.468C240 105.331 241.138 106.071 242.75 106.257C245.458 106.568 245.5 106.68 245.5 113.573C245.5 120.466 245.458 120.578 242.75 120.889C241.238 121.063 240 121.626 240 122.139C240 122.653 244.05 123.073 249 123.073C254.333 123.073 258 122.666 258 122.073C258 121.523 256.65 121.073 255 121.073H252V113.639C252 106.436 252.078 106.196 254.531 105.889C255.923 105.715 257.051 105.123 257.037 104.573C257.023 104.01 253.295 103.447 248.506 103.284C241.552 103.048 240 103.264 240 104.468ZM261 113.073V123.073H263.5C265.864 123.073 266 122.773 266 117.573C266 114.548 266.418 112.073 266.929 112.073C268.808 112.073 275 118.876 275 120.941C275 122.643 275.605 123.073 278 123.073H281V113.073V103.073H278C275.111 103.073 275 103.24 275 107.573C275 110.048 274.698 112.073 274.329 112.073C273.959 112.073 271.717 110.048 269.345 107.573C266.974 105.098 264.126 103.073 263.017 103.073C261.129 103.073 261 103.712 261 113.073ZM284 113.073V123.073H291.083C297.872 123.073 298.309 122.926 301.583 119.555C303.922 117.147 305 115.096 305 113.055C305 110.176 302.062 106.073 300 106.073C299.45 106.073 299 105.398 299 104.573C299 103.373 297.5 103.073 291.5 103.073H284V113.073ZM311 104.534C311 105.582 311.971 106.073 314.044 106.073H317.088L316.794 113.323C316.507 120.405 316.436 120.58 313.75 120.889C312.238 121.063 311 121.626 311 122.139C311 122.653 315.05 123.073 320 123.073C325.333 123.073 329 122.666 329 122.073C329 121.523 327.65 121.073 326 121.073H323V113.639C323 106.436 323.078 106.196 325.531 105.889C326.923 105.715 328.051 105.123 328.037 104.573C328.023 104.01 324.295 103.447 319.506 103.284C312.391 103.042 311 103.247 311 104.534ZM335.25 106.692C332.293 109.938 332 110.836 332 116.666C332 122.787 332.109 123.073 334.434 123.073C336.345 123.073 336.935 122.483 337.184 120.323C337.47 117.834 337.88 117.573 341.5 117.573C345.12 117.573 345.53 117.834 345.816 120.323C346.081 122.626 346.61 123.073 349.066 123.073H352V116.606C352 110.538 351.783 109.922 348.467 106.606C343.645 101.784 339.698 101.81 335.25 106.692ZM361.193 107.323C361.466 111.108 361.774 111.573 364 111.573C366.226 111.573 366.534 111.108 366.807 107.323C367.108 103.167 367.046 103.073 364 103.073C360.954 103.073 360.892 103.167 361.193 107.323ZM380.75 105.156C376.511 109.799 380.877 115.073 388.957 115.073C394.013 115.073 394.126 115.136 393.816 117.823C393.542 120.212 393.006 120.614 389.742 120.884C387.052 121.106 385.814 120.751 385.385 119.634C384.781 118.059 379 117.35 379 118.851C379 123.167 394.136 124.937 398 121.073C400.351 118.722 400.656 115.073 398.5 115.073C397.675 115.073 397 114.42 397 113.623C397 112.559 395.469 112.093 391.25 111.873C385.807 111.589 385.483 111.426 385.184 108.823C384.879 106.178 385.042 106.073 389.434 106.073C392.912 106.073 394 106.446 394 107.639C394 108.75 394.779 109.114 396.673 108.889C399.541 108.55 401.221 106.073 398.583 106.073C397.712 106.073 397 105.398 397 104.573C397 102.117 383.068 102.617 380.75 105.156ZM429 104.573C429 105.398 428.325 106.073 427.5 106.073C425.167 106.073 425.734 110.288 428.408 112.823C430.241 114.561 431.96 115.073 435.957 115.073C441.013 115.073 441.126 115.136 440.816 117.823C440.542 120.212 440.006 120.614 436.742 120.884C434.052 121.106 432.814 120.751 432.385 119.634C432.033 118.717 430.592 118.073 428.893 118.073C425.49 118.073 425.245 118.982 428.011 121.351C429.466 122.596 431.816 123.073 436.5 123.073C441.184 123.073 443.534 122.596 444.989 121.351C449.671 117.342 445.878 112.34 437.804 111.877C432.849 111.593 432.479 111.392 432.184 108.823C431.88 106.187 432.052 106.073 436.327 106.073C439.457 106.073 440.966 106.541 441.389 107.643C441.744 108.568 442.885 109.082 444.167 108.893C446.699 108.521 447.929 106.073 445.583 106.073C444.712 106.073 444 105.398 444 104.573C444 103.373 442.5 103.073 436.5 103.073C430.5 103.073 429 103.373 429 104.573ZM453 104.573C453 105.573 454 106.073 456 106.073H459V114.573V123.073H462H465V114.639C465 106.244 465.012 106.204 467.673 105.889C469.143 105.715 470.53 105.011 470.756 104.323C471.064 103.385 468.902 103.073 462.083 103.073C454.676 103.073 453 103.35 453 104.573ZM474 113.073V123.073H484C490 123.073 494 122.673 494 122.073C494 121.502 491 121.073 487 121.073H480V118.073C480 115.103 480.056 115.073 485.5 115.073C489.722 115.073 491 114.725 491 113.573C491 112.421 489.722 112.073 485.5 112.073C480.056 112.073 480 112.043 480 109.073V106.073H487C492.556 106.073 494 105.763 494 104.573C494 103.34 492.222 103.073 484 103.073H474V113.073ZM500 113.073V123.073H509C518.914 123.073 521.455 121.353 512.25 120.873L506.5 120.573L506.211 111.823L505.922 103.073H502.961H500V113.073ZM524 113.073V123.073H533C542.914 123.073 545.455 121.353 536.25 120.873L530.5 120.573L530.211 111.823L529.922 103.073H526.961H524V113.073ZM548.25 106.699C545.271 109.843 545 110.67 545 116.601V123.073H548C550.68 123.073 551 122.746 551 120.013C551 117.088 551.166 116.966 554.75 117.263C558.006 117.532 558.542 117.935 558.816 120.323C559.081 122.626 559.61 123.073 562.066 123.073H565V116.606C565 110.538 564.783 109.922 561.467 106.606C556.751 101.89 552.78 101.918 548.25 106.699ZM568 113.073V123.073H570.934C573.368 123.073 573.921 122.618 574.184 120.4C574.506 117.677 577 115.788 577 118.267C577 120.739 580.891 123.073 585.011 123.073C589.743 123.073 589.905 122.394 585.958 119.12C582.29 116.078 582.252 115.292 585.75 114.889C588.129 114.616 588.541 114.074 588.807 110.88C589.32 104.703 586.751 103.073 576.5 103.073H568V113.073ZM630.49 104.323C630.243 105.011 629.92 108.948 629.771 113.073L629.5 120.573L625.75 120.883C622.886 121.12 622 120.825 622 119.633C622 118.566 621.052 118.073 619 118.073C617 118.073 616 118.573 616 119.573C616 120.398 616.675 121.073 617.5 121.073C618.325 121.073 619 121.523 619 122.073C619 122.637 621.83 123.073 625.489 123.073C634.917 123.073 636 121.865 636 111.351C636 103.16 635.973 103.073 633.469 103.073C632.076 103.073 630.736 103.636 630.49 104.323ZM642 104.573C642 105.398 641.325 106.073 640.5 106.073C639.321 106.073 639 107.462 639 112.573C639 121.435 640.636 123.073 649.489 123.073C658.444 123.073 660 121.633 660 113.351C660 104.606 658.359 103.073 649 103.073C643.444 103.073 642 103.383 642 104.573ZM663 111.351C663 121.862 664.085 123.073 673.5 123.073C682.915 123.073 684 121.862 684 111.351V103.073H681.039H678.078L677.789 111.823L677.5 120.573H673.5H669.5L669.211 111.823L668.922 103.073H665.961H663V111.351ZM687 113.073V123.073H690C692.66 123.073 693 122.736 693 120.104C693 117.876 693.374 117.279 694.5 117.711C695.325 118.028 696 118.914 696 119.68C696 120.446 696.675 121.073 697.5 121.073C698.325 121.073 699 121.523 699 122.073C699 122.623 700.8 123.073 703 123.073C705.2 123.073 707 122.827 707 122.525C707 122.224 705.875 120.935 704.5 119.661C703.125 118.386 702 116.833 702 116.208C702 115.584 703.125 115.073 704.5 115.073C706.75 115.073 707 114.673 707 111.073C707 104.641 704.647 103.073 695 103.073H687V113.073ZM710 113.073V123.073H713C715.97 123.073 716 123.017 716 117.573C716 114.548 716.418 112.073 716.929 112.073C718.808 112.073 725 118.876 725 120.941C725 122.643 725.605 123.073 728 123.073H731V113.073V103.073H728C725.188 103.073 725 103.314 725 106.906C725 109.015 724.699 111.041 724.331 111.409C723.963 111.777 721.72 110.052 719.348 107.575C716.472 104.574 714.194 103.073 712.517 103.073H710V113.073ZM734 113.073V123.073H744.5C756.415 123.073 758.994 121.322 747.75 120.867C740.703 120.581 740.491 120.497 740.189 117.875C739.886 115.25 740.034 115.168 745.61 114.875C753.501 114.459 754.016 112.275 746.316 111.875C740.826 111.59 740.482 111.421 740.188 108.868C739.877 106.172 739.899 106.162 747.108 105.868C751.782 105.677 754.486 105.131 754.753 104.323C755.067 103.376 752.604 103.073 744.583 103.073H734V113.073ZM761 107.573C761 110.906 761.389 112.073 762.5 112.073C763.325 112.073 764 112.748 764 113.573C764 114.398 764.675 115.073 765.5 115.073C766.587 115.073 767 116.191 767 119.139C767 122.986 767.149 123.189 769.75 122.889C772.081 122.621 772.55 122.046 772.829 119.115C773.025 117.056 774.138 114.748 775.579 113.412C777.372 111.75 778 110.119 778 107.121C778 103.495 777.745 103.073 775.557 103.073C773.399 103.073 773.079 103.567 772.807 107.323C772.532 111.126 772.211 111.606 769.75 111.889C767.105 112.194 767 112.031 767 107.639C767 103.232 766.895 103.073 764 103.073C761.111 103.073 761 103.24 761 107.573ZM61.807 110.323C61.501 114.563 61.491 114.573 57.5 114.573C53.509 114.573 53.499 114.563 53.193 110.323L52.885 106.073H57.5H62.115L61.807 110.323ZM108.794 113.323L108.5 120.573H105H101.5L101.206 113.323L100.912 106.073H105H109.088L108.794 113.323ZM132.983 108.323C132.961 111.13 128.659 115.345 126.277 114.893C124.97 114.645 124.419 113.435 124.193 110.314L123.885 106.073H128.443C132.507 106.073 132.998 106.316 132.983 108.323ZM297 108.073C299.822 110.895 299.592 115.978 296.51 118.902C292.167 123.021 290.542 121.579 290.206 113.312C289.915 106.147 289.938 106.073 292.456 106.073C293.855 106.073 295.9 106.973 297 108.073ZM344.061 108.134C345.21 109.283 345.985 111.165 345.811 112.384C345.551 114.218 344.853 114.573 341.514 114.573C336.808 114.573 335.838 112.538 338.682 108.633C340.909 105.575 341.451 105.524 344.061 108.134ZM557 108.073C558.1 109.173 559 111.198 559 112.573C559 114.823 558.6 115.073 555 115.073C551.4 115.073 551 114.823 551 112.573C551 110.605 553.321 106.633 554.75 106.156C554.888 106.11 555.9 106.973 557 108.073ZM583 108.604C583 109.997 582.325 111.395 581.5 111.711C580.675 112.028 580 112.944 580 113.746C580 114.749 579.138 115.107 577.25 114.889C574.789 114.606 574.468 114.126 574.193 110.323L573.885 106.073H578.443C582.652 106.073 583 106.266 583 108.604ZM653.794 113.323L653.5 120.573H649.5H645.5L645.206 113.323L644.912 106.073H649.5H654.088L653.794 113.323ZM701.82 108.35C702.272 110.732 698.057 115.034 695.25 115.056C693.243 115.071 693 114.58 693 110.516V105.958L697.241 106.266C700.362 106.492 701.572 107.043 701.82 108.35Z" fill="white"/>
</svg>
